HIERARCHY
ROOT Hips
{
	OFFSET 0.000000 0.000000 0.000000
	CHANNELS 6 Xposition Yposition Zposition Xrotation Yrotation Zrotation
	JOINT LeftUpLeg_virtual
	{
		OFFSET 0.000000 0.000000 0.000000
		CHANNELS 3 Xrotation Yrotation Zrotation
		JOINT LeftUpLeg
		{
			OFFSET 11.394100 -6.187798 -0.413800
			CHANNELS 3 Xrotation Yrotation Zrotation
			JOINT LeftLeg
			{
				OFFSET 0.430247 -32.302673 3.732800
				CHANNELS 3 Xrotation Yrotation Zrotation
				JOINT LeftFoot
				{
					OFFSET -0.430247 -48.264931 -6.423300
					CHANNELS 3 Xrotation Yrotation Zrotation
					JOINT LeftToeBase
					{
						OFFSET 4.230900 -16.068199 23.438400
						CHANNELS 3 Xrotation Yrotation Zrotation
						JOINT LeftToe_End
						{
							OFFSET 4.510700 0.695400 19.974600
							CHANNELS 3 Xrotation Yrotation Zrotation
							End Site
							{
								OFFSET 0 0 0
							}
						}
					}
				}
			}
		}
	}
	JOINT RightUpLeg_virtual
	{
		OFFSET 0.000000 0.000000 0.000000
		CHANNELS 3 Xrotation Yrotation Zrotation
		JOINT RightUpLeg
		{
			OFFSET -11.333700 -6.187798 -0.413800
			CHANNELS 3 Xrotation Yrotation Zrotation
			JOINT RightLeg
			{
				OFFSET -0.430392 -32.302628 3.733000
				CHANNELS 3 Xrotation Yrotation Zrotation
				JOINT RightFoot
				{
					OFFSET 0.430392 -48.264973 -6.423500
					CHANNELS 3 Xrotation Yrotation Zrotation
					JOINT RightToeBase
					{
						OFFSET -4.230900 -16.068199 23.438400
						CHANNELS 3 Xrotation Yrotation Zrotation
						JOINT RightToe_End
						{
							OFFSET -4.510700 0.695400 19.974600
							CHANNELS 3 Xrotation Yrotation Zrotation
							End Site
							{
								OFFSET 0 0 0
							}
						}
					}
				}
			}
		}
	}
	JOINT Spine_virtual
	{
		OFFSET 0.000000 0.000000 0.000000
		CHANNELS 3 Xrotation Yrotation Zrotation
		JOINT Spine
		{
			OFFSET -0.002400 12.777504 0.315300
			CHANNELS 3 Xrotation Yrotation Zrotation
			JOINT Spine1
			{
				OFFSET -0.002067 5.816869 0.032633
				CHANNELS 3 Xrotation Yrotation Zrotation
				JOINT Spine1_split
				{
					OFFSET -0.002067 5.816869 0.032633
					CHANNELS 3 Xrotation Yrotation Zrotation
					JOINT Spine2
					{
						OFFSET -0.002067 5.816869 0.032633
						CHANNELS 3 Xrotation Yrotation Zrotation
						JOINT Neck_virtual
						{
							OFFSET 0.000000 0.000000 0.000000
							CHANNELS 3 Xrotation Yrotation Zrotation
							JOINT Neck
							{
								OFFSET -0.003700 21.199493 -0.826900
								CHANNELS 3 Xrotation Yrotation Zrotation
								JOINT Head
								{
									OFFSET 0.000000 20.442200 4.834800
									CHANNELS 3 Xrotation Yrotation Zrotation
									JOINT HeadTop_End
									{
										OFFSET 0.000000 34.668396 4.968400
										CHANNELS 3 Xrotation Yrotation Zrotation
										End Site
										{
											OFFSET 0 0 0
										}
									}
								}
							}
						}
						JOINT LeftShoulder_virtual
						{
							OFFSET 0.000000 0.000000 0.000000
							CHANNELS 3 Xrotation Yrotation Zrotation
							JOINT LeftShoulder
							{
								OFFSET 3.288150 8.794197 -1.372250
								CHANNELS 3 Xrotation Yrotation Zrotation
								JOINT LeftShoulder_split
								{
									OFFSET 3.288150 8.794197 -1.372250
									CHANNELS 3 Xrotation Yrotation Zrotation
									JOINT LeftArm
									{
										OFFSET 11.953299 -2.279007 -0.146200
										CHANNELS 3 Xrotation Yrotation Zrotation
										JOINT LeftForeArm
										{
											OFFSET 18.448900 0.000000 0.000000
											CHANNELS 3 Xrotation Yrotation Zrotation
											JOINT LeftHand
											{
												OFFSET 29.527798 0.000000 0.000000
												CHANNELS 3 Xrotation Yrotation Zrotation
												End Site
												{
													OFFSET 0 0 0
												}
											}
										}
									}
								}
							}
						}
						JOINT RightShoulder_virtual
						{
							OFFSET 0.000000 0.000000 0.000000
							CHANNELS 3 Xrotation Yrotation Zrotation
							JOINT RightShoulder
							{
								OFFSET -3.249400 8.794197 -1.372250
								CHANNELS 3 Xrotation Yrotation Zrotation
								JOINT RightShoulder_split
								{
									OFFSET -3.249400 8.794197 -1.372250
									CHANNELS 3 Xrotation Yrotation Zrotation
									JOINT RightArm
									{
										OFFSET -11.953299 -2.279007 -0.146200
										CHANNELS 3 Xrotation Yrotation Zrotation
										JOINT RightForeArm
										{
											OFFSET -18.448900 0.000000 0.000000
											CHANNELS 3 Xrotation Yrotation Zrotation
											JOINT RightHand
											{
												OFFSET -29.527802 0.000000 0.000000
												CHANNELS 3 Xrotation Yrotation Zrotation
												End Site
												{
													OFFSET 0 0 0
												}
											}
										}
									}
								}
							}
						}
					}
				}
			}
		}
	}
}
MOTION
Frames: 5
Frame Time: 0.03333333
-1.022537 47.223640 72.654854 0.000000 0.000000 0.000000 20.416979 -23.282110 -10.813468 -1.944617 3.831344 7.352950 100.545104 -4.335332 0.479390 26.832678 -3.781516 -19.775604 2.048754 -0.082068 -6.002948 0.000000 0.000000 0.000000 21.244274 -15.714730 -12.297164 -7.789975 16.438288 -3.725980 72.755264 8.782454 -11.312856 59.228778 5.198604 16.806049 17.262885 -6.501337 -1.855740 0.000000 0.000000 0.000000 21.284732 -21.495370 -11.214510 6.718521 0.204653 5.948553 -2.689776 2.366222 1.664759 0.000599 -3.510891 1.471634 0.000000 0.000000 0.000000 -4.070305 2.478262 2.139896 -59.084367 -1.466214 18.684297 16.425155 16.381287 -15.881665 0.000000 0.000000 0.000000 -4.589366 2.652689 1.600912 -19.181934 0.788030 -16.440959 -3.432676 4.368218 -3.189872 11.246735 6.716607 -49.189684 72.274371 -32.088365 38.504710 0.000000 0.000000 0.000000 -4.666924 2.529270 1.711720 -18.539427 1.436763 22.818808 -8.687063 -0.016679 -1.423833 4.703357 -9.134808 51.015376 7.106175 31.953455 9.466675 0.000000 0.000000 0.000000 
-0.365339 47.092896 75.545235 0.000000 0.000000 0.000000 22.227032 -25.267211 -10.684981 1.776261 3.938593 6.092719 96.003008 -2.189585 -1.779408 24.755206 -1.595415 -19.307697 0.763408 -0.823642 -5.588237 0.000000 0.000000 0.000000 22.797087 -16.377004 -12.614751 -7.700990 14.577024 -3.836866 72.513154 8.807983 -11.017064 57.438756 6.443166 16.767952 16.622411 -6.852495 -2.428105 0.000000 0.000000 0.000000 22.541299 -21.877629 -11.444930 6.663407 -0.101035 6.416467 -3.083891 2.168697 1.993192 0.356494 -2.986011 1.267558 0.000000 0.000000 0.000000 -4.274748 2.379660 2.360816 -60.843421 -2.164755 19.593077 17.582415 16.787628 -16.483632 0.000000 0.000000 0.000000 -4.871679 2.495256 1.935316 -19.234511 0.797738 -16.371963 -2.698246 4.147386 -3.523613 12.116660 10.582441 -46.140715 75.336522 -34.024352 39.246431 0.000000 0.000000 0.000000 -4.892255 2.416040 1.921209 -18.421748 0.179630 22.353404 -7.769724 -0.213063 -0.475513 4.826257 -5.772840 53.053477 -1.771812 36.641458 13.768581 0.000000 0.000000 0.000000 
0.205972 46.845940 78.249649 0.000000 0.000000 0.000000 24.231892 -26.667439 -10.215862 5.101443 3.120965 4.694910 91.993783 -0.825712 -3.080662 23.488030 -0.293352 -20.089342 -1.097259 -1.459588 -4.417020 0.000000 0.000000 0.000000 24.748147 -16.969562 -12.638661 -7.585418 12.113582 -4.249217 72.153237 8.998911 -10.489886 56.809771 8.375680 17.002286 14.806264 -7.229370 -3.379807 0.000000 0.000000 0.000000 24.196649 -21.896398 -11.328540 6.362695 -0.437707 6.483854 -3.287569 1.965144 2.427309 0.697648 -2.372606 1.022340 0.000000 0.000000 0.000000 -4.278793 2.262208 2.691178 -62.859078 -2.798006 19.899170 18.508595 16.609343 -17.017290 0.000000 0.000000 0.000000 -4.978229 2.366431 2.376390 -19.321126 0.382468 -15.694755 -1.472643 3.643094 -3.919872 13.748551 11.849633 -42.873490 74.819258 -37.872736 38.179204 0.000000 0.000000 0.000000 -4.804788 2.324582 2.257520 -18.422569 -0.902923 21.882809 -6.635412 -0.831057 0.457178 5.418304 -2.505308 55.492941 -7.596416 43.256254 15.797524 0.000000 0.000000 0.000000 
0.554505 46.455608 80.775665 0.000000 0.000000 0.000000 26.382664 -26.904033 -9.612608 7.454788 0.993727 3.221724 88.174512 -0.302666 -3.170470 23.192985 0.029900 -21.984729 -1.759506 -1.949109 -3.087660 0.000000 0.000000 0.000000 27.034719 -17.374497 -12.461706 -7.166996 9.566366 -4.742083 71.049902 9.183469 -9.787617 56.722085 10.292569 17.194212 12.793620 -7.551864 -4.353224 0.000000 0.000000 0.000000 26.348922 -21.570870 -10.991811 5.878987 -0.705829 6.197040 -3.318381 1.798893 2.903669 0.859522 -1.727723 0.999289 0.000000 0.000000 0.000000 -4.165391 2.160374 3.085208 -65.031980 -3.248999 19.626940 19.168395 15.793470 -17.410051 0.000000 0.000000 0.000000 -4.934871 2.293705 2.839996 -19.423759 -0.365725 -14.535216 -0.518619 3.193238 -4.368370 15.609235 11.102512 -39.729598 70.340287 -42.380521 34.656742 0.000000 0.000000 0.000000 -4.470614 2.285452 2.634352 -18.609378 -1.609328 21.565885 -5.637752 -1.555828 1.116381 6.382141 0.005617 57.082275 -9.326532 50.543506 14.733152 0.000000 0.000000 0.000000 
0.683828 45.977428 83.030563 0.000000 0.000000 0.000000 28.835115 -25.836022 -9.159507 8.840733 -2.418713 1.716734 83.474242 0.135111 -2.321861 22.761809 -0.105655 -24.112562 -0.896470 -2.168448 -2.265359 0.000000 0.000000 0.000000 29.692174 -17.437927 -12.156553 -6.092240 7.415498 -5.085412 69.086298 9.062485 -8.910215 56.604015 11.357683 16.885023 11.445672 -7.755177 -4.928922 0.000000 0.000000 0.000000 28.979885 -20.860409 -10.652841 5.290360 -0.846003 5.687315 -3.240579 1.691945 3.342160 0.930753 -1.133188 1.143260 0.000000 0.000000 0.000000 -4.014438 2.076239 3.432827 -67.297506 -3.491137 18.894878 19.645251 14.507373 -17.691201 0.000000 0.000000 0.000000 -4.788115 2.318653 3.219750 -19.509389 -1.201986 -13.094647 -0.209098 2.616674 -4.988855 17.818710 9.230207 -37.119455 62.734830 -46.511232 29.156930 0.000000 0.000000 0.000000 -4.028207 2.284703 2.962039 -18.939698 -1.978066 21.438031 -4.708166 -2.006197 1.180625 7.569384 1.523583 57.279920 -5.798343 57.546687 9.497955 0.000000 0.000000 0.000000 
